# xmcd
#
# Track frame offsets:
#	150
#	13675
#	22233
#	39253
#	55684
#	72130
#	83375
#	96400
#	108371
#	124768
#	139720
#	150008
#	165693
#	181439
#	200119
#	217317
#
# Disc length: 3102 seconds
#
# Revision: 2
# Processed by: cddbd v1.5.1PL2 Copyright (c) Steve Scherf et al.
# Submitted via: EasyCDDAExtractor 7.0.5.1
#
DISCID=d60c1c10
DTITLE=Various Artist - Oktoberfest 2002 - Spaten München
DYEAR=2002
DGENRE=Folklore
TTITLE0=Dolomitensextett - Die Hände zum Himmel
TTITLE1=Münchner Zwietracht - Life is life
TTITLE2=Schachner and Co - Anton aus Tirol
TTITLE3=Münchner Zwietracht feat R. Moshammer - Mooa hamma
TTITLE4=Didi Diesel - Hey Baby
TTITLE5=Münchner Zwietracht - Wahnsinn (Hölle,Hölle,Hölle)
TTITLE6=Die Edlseer - Alice - deifi wo is Alice
TTITLE7=Münchner Zwietracht - Schickeria
TTITLE8=Die jungen Zillertaler - Schalala la la (Hola-Ladi-Yeah)
TTITLE9=DJ Altbundeskanzler - Ho mir ma ne Flasche Bier
TTITLE10=Münchner Zwietracht - We are the Champinions
TTITLE11=Almöhi Express - Anneliese 2002
TTITLE12=Münchner Zwietracht - Skandal im Sperrbezirk
TTITLE13=Pete Cash - Country Roads
TTITLE14=Münchner Zwietracht - Fürstenfeld
TTITLE15=<< Diverse >> - Sierra Madre
EXTD=
EXTT0=
EXTT1=
EXTT2=
EXTT3=
EXTT4=
EXTT5=
EXTT6=
EXTT7=
EXTT8=
EXTT9=
EXTT10=
EXTT11=
EXTT12=
EXTT13=
EXTT14=
EXTT15=
PLAYORDER=
